<?xml version="1.0" standalone="no"?>
<!DOCTYPE svg PUBLIC "-//W3C//DTD SVG 20010904//EN"
 "http://www.w3.org/TR/2001/REC-SVG-20010904/DTD/svg10.dtd">
<svg version="1.0" xmlns="http://www.w3.org/2000/svg"
 width="728.000000pt" height="728.000000pt" viewBox="0 0 728.000000 728.000000"
 preserveAspectRatio="xMidYMid meet">
<metadata>
Created by potrace 1.14, written by Peter Selinger 2001-2017
</metadata>
<g transform="translate(0.000000,728.000000) scale(0.100000,-0.100000)"
fill="#000000" stroke="none">
<path d="M1695 7273 c-11 -3 -22 -9 -25 -13 -3 -4 -30 -20 -60 -36 -30 -15
-57 -31 -60 -34 -3 -4 -45 -29 -93 -56 -49 -27 -96 -54 -105 -59 -9 -6 -51
-29 -92 -53 -41 -23 -82 -47 -90 -52 -38 -25 -243 -140 -248 -140 -3 0 -13 -6
-21 -14 -9 -8 -38 -26 -66 -40 -27 -15 -59 -32 -70 -39 -39 -24 -91 -54 -135
-79 -195 -109 -240 -139 -255 -168 -13 -26 -15 -292 -15 -2224 0 -2071 1
-2197 18 -2230 9 -20 21 -36 26 -36 5 0 42 -20 83 -45 40 -25 78 -45 83 -45 6
0 10 -4 10 -10 0 -5 5 -10 10 -10 6 0 95 -49 198 -108 103 -60 194 -112 202
-115 8 -4 29 -16 45 -27 17 -11 37 -23 45 -27 8 -3 26 -14 40 -23 14 -9 61
-37 105 -60 44 -24 86 -50 93 -57 7 -7 17 -13 22 -13 5 0 43 -20 83 -45 41
-25 78 -45 82 -45 4 0 19 -9 34 -19 15 -11 54 -34 86 -52 33 -17 67 -37 75
-43 8 -6 24 -16 35 -22 52 -28 116 -65 175 -100 36 -21 67 -39 70 -39 3 0 16
-8 30 -17 25 -16 253 -147 489 -282 29 -17 74 -43 100 -59 25 -15 58 -32 74
-38 15 -6 27 -15 27 -20 0 -5 4 -9 8 -9 10 0 211 -113 229 -129 6 -6 31 -13
55 -16 40 -5 52 0 183 76 77 45 160 93 185 107 25 14 57 32 72 41 15 9 109 63
210 121 101 57 185 107 188 110 3 3 34 21 70 39 36 19 72 40 81 47 8 8 19 14
22 14 4 0 36 18 72 40 36 22 68 40 70 40 3 0 46 25 96 55 50 30 94 55 98 55 5
0 19 8 32 18 13 11 49 32 79 49 30 17 72 40 93 53 l39 23 -3 -24 c-2 -13 0
-30 4 -36 5 -7 5 -13 0 -13 -14 0 37 -31 58 -35 11 -2 30 0 42 5 21 8 160 51
182 56 6 1 39 12 75 23 84 27 102 26 129 -3 21 -23 27 -71 12 -101 -3 -5 -6
-18 -7 -30 -1 -11 -15 -76 -29 -145 -15 -69 -29 -134 -31 -145 -2 -11 -6 -31
-9 -45 -6 -27 -8 -39 -29 -150 -8 -41 -17 -82 -20 -90 -3 -8 -7 -31 -10 -50
-3 -19 -15 -78 -27 -130 -11 -52 -22 -104 -24 -115 -2 -11 -13 -65 -24 -120
-12 -55 -24 -111 -26 -125 -3 -14 -7 -37 -10 -51 -3 -19 2 -34 20 -53 32 -34
69 -34 102 1 22 24 1071 2103 1082 2143 2 8 6 17 10 20 3 3 31 57 61 120 30
63 57 117 60 120 12 12 30 51 30 64 0 8 3 16 8 18 9 4 72 130 72 145 0 6 3 13
8 15 9 4 92 171 92 185 0 6 3 13 8 15 6 2 55 97 76 148 3 8 17 35 31 59 14 24
25 50 25 57 0 7 4 14 8 16 4 2 17 25 29 53 19 44 20 52 7 76 -7 15 -23 31 -35
34 -17 6 -73 1 -124 -11 -5 -1 -27 -4 -47 -8 -21 -3 -59 -11 -85 -17 -27 -6
-55 -12 -63 -14 -38 -7 -107 -19 -122 -21 -10 -1 -19 -2 -20 -4 -7 -5 -96 -21
-137 -25 -26 -2 -41 4 -58 21 -29 30 -28 38 28 229 22 77 42 146 43 153 2 13
55 61 67 62 4 0 130 71 280 158 151 88 294 170 319 184 98 55 256 149 271 161
39 30 39 34 39 804 0 579 -3 754 -13 773 -14 27 -58 59 -162 115 -38 21 -72
41 -75 44 -3 3 -19 13 -35 22 -60 31 -120 64 -125 69 -3 3 -68 41 -145 85 -77
44 -147 85 -156 90 -10 6 -30 17 -46 26 -96 54 -132 75 -163 94 -19 12 -66 39
-105 60 -38 21 -101 57 -140 80 -119 72 -187 105 -214 105 -15 0 -73 -27 -131
-61 -58 -33 -123 -71 -145 -83 -22 -13 -56 -32 -75 -43 -19 -12 -80 -47 -135
-78 -55 -32 -116 -67 -135 -78 -19 -11 -55 -31 -80 -45 -25 -13 -49 -28 -55
-32 -5 -5 -33 -21 -61 -37 -352 -197 -523 -301 -538 -326 -14 -26 -16 -99 -16
-731 0 -657 -1 -704 -18 -718 -15 -13 -134 -83 -264 -157 -90 -50 -109 -61
-147 -85 -22 -15 -43 -26 -46 -26 -3 0 -29 -15 -58 -33 -29 -18 -73 -44 -99
-57 -27 -14 -48 -28 -48 -32 0 -5 -4 -8 -10 -8 -8 0 -79 -38 -165 -89 -16 -10
-50 -29 -75 -43 -25 -14 -61 -35 -80 -46 -19 -12 -38 -22 -43 -22 -4 0 -7 617
-7 1371 0 1283 -1 1372 -17 1400 -9 16 -20 29 -24 29 -4 0 -53 27 -108 60 -56
33 -106 60 -111 60 -6 0 -10 5 -10 10 0 6 -4 10 -9 10 -5 0 -49 23 -98 51 -48
29 -108 63 -133 77 -25 14 -62 36 -82 49 -21 12 -42 23 -47 23 -5 0 -11 3 -13
8 -1 4 -19 15 -38 25 -62 31 -150 83 -162 95 -7 7 -15 12 -19 12 -5 0 -58 29
-119 65 -61 36 -114 65 -117 65 -4 0 -14 6 -22 14 -9 8 -38 26 -66 41 -27 14
-72 39 -100 55 -48 28 -77 34 -120 23z m237 -334 c232 -134 229 -132 348 -200
52 -29 97 -56 100 -59 5 -5 16 -11 96 -55 27 -14 63 -35 79 -45 17 -10 53 -31
80 -45 28 -15 57 -33 65 -39 8 -7 32 -21 52 -31 21 -11 34 -22 30 -26 -4 -4
-86 -52 -182 -107 -96 -56 -179 -105 -185 -109 -5 -5 -26 -17 -45 -26 -19 -10
-53 -29 -75 -42 -22 -13 -47 -28 -55 -32 -72 -38 -156 -88 -158 -95 -2 -4 -12
-8 -22 -8 -10 0 -20 -4 -22 -8 -1 -5 -23 -20 -48 -34 -25 -14 -92 -52 -150
-85 l-105 -60 -190 110 c-105 60 -209 120 -232 133 -23 13 -92 53 -153 89 -61
36 -113 65 -115 65 -3 0 -29 16 -59 35 -30 19 -57 35 -60 35 -3 0 -46 25 -97
55 -50 30 -93 55 -96 55 -2 0 -15 7 -29 16 l-25 17 38 22 c21 12 130 75 243
140 113 65 319 184 458 264 139 80 265 154 280 163 15 9 30 17 34 17 4 1 94
-49 200 -110z m3704 -659 c47 -27 89 -50 94 -50 6 0 10 -4 10 -10 0 -5 4 -10
8 -10 8 0 233 -128 572 -324 74 -44 155 -90 180 -104 25 -14 58 -33 73 -42
l28 -18 -71 -41 c-40 -22 -76 -41 -81 -41 -5 0 -9 -4 -9 -10 0 -5 -5 -10 -10
-10 -6 0 -56 -27 -111 -60 -55 -33 -102 -60 -105 -60 -2 0 -23 -11 -45 -26
-22 -14 -57 -34 -77 -46 -50 -28 -122 -69 -147 -82 -11 -6 -22 -13 -25 -16 -3
-3 -16 -11 -30 -17 -14 -7 -97 -54 -185 -106 l-160 -93 -153 88 c-85 48 -158
88 -163 88 -5 0 -9 4 -9 9 0 5 -16 15 -35 22 -19 7 -35 17 -35 21 0 4 -4 8
-10 8 -5 0 -39 18 -75 40 -36 22 -68 40 -71 40 -3 0 -26 14 -51 30 -24 17 -46
30 -49 30 -5 0 -153 84 -194 110 -36 23 -166 96 -182 102 -28 11 -21 32 15 47
17 8 34 17 37 21 3 4 35 23 71 43 37 20 147 83 245 140 99 57 206 119 239 138
33 19 68 39 77 44 9 6 41 23 70 39 29 15 60 34 69 42 8 8 18 14 21 14 3 0 43
22 89 49 46 27 88 50 92 50 5 1 46 -21 93 -49z m-5006 -55 c22 -14 41 -25 43
-25 2 0 107 -60 233 -133 126 -73 236 -136 244 -140 8 -4 29 -16 45 -26 17
-11 46 -28 65 -39 59 -32 102 -57 183 -106 43 -25 80 -46 83 -46 2 0 26 -14
54 -31 l50 -31 0 -1431 c0 -1135 3 -1437 13 -1457 12 -24 107 -87 189 -127 21
-10 38 -21 38 -25 0 -5 4 -8 10 -8 8 0 79 -38 150 -80 129 -76 170 -99 188
-104 12 -4 22 -12 22 -17 0 -5 5 -9 10 -9 6 0 43 -19 83 -41 40 -23 92 -53
117 -67 158 -88 279 -158 303 -174 15 -11 27 -16 27 -12 0 4 8 1 18 -7 9 -8
34 -24 55 -34 36 -19 56 -53 43 -74 -4 -5 -2 -12 4 -16 6 -4 7 -11 4 -17 -6
-9 -9 -197 -4 -223 1 -5 1 -14 0 -20 -2 -12 -2 -366 1 -380 1 -5 0 -14 -1 -20
-2 -12 -2 -206 0 -220 1 -5 1 -14 0 -20 -1 -5 -2 -65 -2 -132 l0 -123 -41 24
c-48 26 -145 82 -167 96 -24 15 -171 99 -230 132 -19 11 -48 28 -65 38 -16 10
-52 31 -80 46 -27 14 -62 35 -77 45 -14 11 -28 19 -31 19 -3 0 -65 35 -138 78
-74 43 -165 96 -204 117 -38 21 -72 41 -75 44 -3 3 -19 13 -35 22 -65 33 -120
64 -125 70 -3 3 -30 19 -60 36 -114 62 -156 87 -190 110 -19 12 -39 23 -43 23
-5 0 -29 14 -54 30 -24 16 -46 30 -48 30 -2 0 -75 41 -162 92 -87 50 -167 96
-178 102 -11 6 -88 51 -172 99 l-152 88 0 2050 c0 1340 3 2049 10 2049 5 0 27
-11 49 -25z m3842 -738 c40 -24 80 -46 88 -50 8 -4 29 -15 45 -26 29 -18 68
-40 143 -82 20 -12 57 -33 82 -48 69 -40 90 -52 181 -104 46 -27 100 -58 119
-69 19 -12 96 -56 171 -99 l136 -79 -1 -207 c-1 -198 -2 -206 -21 -209 -11 -2
-36 -6 -55 -10 -19 -4 -42 -9 -50 -10 -15 -2 -403 -79 -585 -116 -55 -11 -113
-22 -130 -24 -16 -3 -37 -7 -45 -10 -22 -8 -90 -17 -130 -18 l-35 -1 -2 603
c-2 351 1 602 6 602 5 0 42 -19 83 -43z m-337 -1494 c-3 -43 -8 -112 -11 -153
-3 -41 -7 -115 -9 -165 -2 -49 -6 -124 -9 -165 -3 -41 -8 -122 -11 -180 -4
-58 -8 -130 -10 -160 -5 -71 -17 -275 -19 -319 -1 -35 -12 -43 -176 -134 -25
-14 -234 -133 -465 -265 l-419 -241 -41 22 c-22 12 -42 24 -45 27 -3 3 -21 13
-40 24 -33 17 -121 67 -235 131 -27 16 -63 37 -80 47 -16 10 -37 21 -45 25 -8
4 -48 26 -88 50 -41 24 -75 43 -77 43 -2 0 -26 13 -53 29 -50 29 -109 63 -189
107 -27 15 -74 42 -106 61 l-58 35 38 20 c21 11 153 87 293 168 140 81 271
157 290 167 109 62 379 219 405 234 17 11 37 22 45 26 8 4 48 26 88 50 40 24
77 43 82 43 6 0 10 5 10 10 0 6 4 10 10 10 5 0 64 32 132 71 67 40 137 80 154
90 17 9 42 23 55 31 13 7 26 15 29 18 3 3 23 14 45 26 52 27 89 48 95 54 3 3
19 12 35 20 17 8 36 21 43 28 7 6 20 12 28 12 8 0 14 5 14 10 0 6 5 10 11 10
6 0 47 22 92 48 45 27 89 52 97 55 8 4 33 19 55 32 22 14 41 25 42 25 1 0 0
-35 -2 -77z"/>
</g>
</svg>
