<?xml version="1.0" standalone="no"?>
<!DOCTYPE svg PUBLIC "-//W3C//DTD SVG 20010904//EN"
 "http://www.w3.org/TR/2001/REC-SVG-20010904/DTD/svg10.dtd">
<svg version="1.0" xmlns="http://www.w3.org/2000/svg"
 width="582.000000pt" height="582.000000pt" viewBox="0 0 582.000000 582.000000"
 preserveAspectRatio="xMidYMid meet">
<metadata>
Created by potrace 1.14, written by Peter Selinger 2001-2017
</metadata>
<g transform="translate(0.000000,582.000000) scale(0.100000,-0.100000)"
fill="#000000" stroke="none">
<path d="M1586 5134 c-68 -14 -110 -37 -160 -88 -167 -173 -124 -450 86 -556
34 -16 68 -30 76 -30 12 0 13 -45 9 -317 -4 -300 -6 -324 -30 -418 -25 -99
-55 -175 -137 -350 -279 -596 -718 -1570 -800 -1775 -73 -182 -87 -231 -99
-350 -28 -257 61 -524 238 -714 89 -95 259 -200 381 -233 61 -17 163 -18 1760
-18 1597 0 1699 1 1760 18 122 33 292 138 381 233 177 190 266 457 238 714
-12 119 -26 168 -99 350 -82 205 -521 1179 -800 1775 -82 175 -112 251 -137
350 -24 94 -26 118 -30 415 l-5 315 51 18 c166 58 261 236 217 406 -30 118
-127 224 -229 252 -57 15 -2597 19 -2671 3z m1934 -959 c0 -513 39 -686 259
-1147 38 -82 68 -148 67 -148 -39 0 -316 109 -561 220 -265 120 -446 197 -570
242 -109 39 -339 100 -429 113 -25 4 -48 11 -51 15 -2 4 6 61 20 126 37 181
45 289 45 579 l0 265 610 0 610 0 0 -265z m-1361 -1411 c205 -38 430 -118 741
-264 539 -252 811 -339 1191 -381 l107 -12 72 -161 c137 -304 280 -636 300
-696 26 -78 25 -125 -5 -186 -46 -93 124 -84 -1655 -84 -1779 0 -1609 -9
-1655 84 -30 60 -31 108 -5 186 36 106 250 592 581 1313 l104 229 70 -6 c39
-4 108 -13 154 -22z"/>
</g>
</svg>
